<svg width="440" height="82" viewBox="0 0 440 82" fill="none" xmlns="http://www.w3.org/2000/svg">
<g filter="url(#filter0_d)">
<path d="M30.8513 72.121H17.5388V19.996L4.55444 25.0116V13.9491L29.4451 3.77725H30.8513V72.121ZM89.8669 43.9023C89.8669 53.3398 88.1482 60.5585 84.7107 65.5585C81.3044 70.5585 76.4294 73.0585 70.0857 73.0585C63.8044 73.0585 58.9451 70.6366 55.5076 65.7929C52.1013 60.9179 50.3357 53.9491 50.2107 44.8866V31.996C50.2107 22.5898 51.9138 15.4023 55.3201 10.4335C58.7263 5.4335 63.6169 2.9335 69.9919 2.9335C76.3669 2.9335 81.2576 5.40225 84.6638 10.3398C88.0701 15.2773 89.8044 22.3241 89.8669 31.4804V43.9023ZM76.5544 30.0741C76.5544 24.6991 76.0232 20.6679 74.9607 17.9804C73.8982 15.2929 72.2419 13.9491 69.9919 13.9491C65.7732 13.9491 63.5857 18.871 63.4294 28.7148V45.7304C63.4294 51.2304 63.9607 55.3241 65.0232 58.0116C66.1169 60.6991 67.8044 62.0429 70.0857 62.0429C72.2419 62.0429 73.8357 60.7929 74.8669 58.2929C75.9294 55.7616 76.4919 51.9023 76.5544 46.7148V30.0741ZM154.508 58.1523H135.711L132.054 72.121H117.476L138.804 3.871H151.414L172.883 72.121H158.164L154.508 58.1523ZM138.711 46.6679H151.461L145.086 22.3398L138.711 46.6679ZM193.226 8.9335V21.4023H200.023V31.3866H193.226V56.5585C193.226 58.5585 193.492 59.9335 194.023 60.6835C194.586 61.4335 195.648 61.8085 197.211 61.8085C198.492 61.8085 199.539 61.6991 200.351 61.4804L200.258 71.7929C198.008 72.6366 195.57 73.0585 192.945 73.0585C184.383 73.0585 180.054 68.1523 179.961 58.3398V31.3866H174.101V21.4023H179.961V8.9335H193.226ZM220.273 25.8554C223.148 22.2616 226.679 20.4648 230.867 20.4648C235.492 20.4648 239.008 22.0898 241.414 25.3398C243.82 28.5898 245.039 33.4335 245.07 39.871V72.121H231.758V40.0116C231.758 37.0429 231.289 34.9023 230.351 33.5898C229.445 32.246 227.961 31.5741 225.898 31.5741C223.492 31.5741 221.617 32.6835 220.273 34.9023V72.121H207.008V0.121002H220.273V25.8554ZM268.508 72.121H255.195V0.121002H268.508V72.121ZM299.258 73.0585C292.445 73.0585 287.133 71.0273 283.32 66.9648C279.508 62.9023 277.601 57.0898 277.601 49.5273V45.496C277.601 37.496 279.351 31.3241 282.851 26.9804C286.351 22.6366 291.367 20.4648 297.898 20.4648C304.273 20.4648 309.07 22.5116 312.289 26.6054C315.508 30.6679 317.148 36.6991 317.211 44.6991V51.2148H290.82C291.008 54.9648 291.836 57.7148 293.304 59.4648C294.773 61.1835 297.039 62.0429 300.101 62.0429C304.539 62.0429 308.242 60.5273 311.211 57.496L316.414 65.5116C314.789 67.7616 312.429 69.5898 309.336 70.996C306.242 72.371 302.883 73.0585 299.258 73.0585ZM290.914 41.9335H304.179V40.7148C304.117 37.6835 303.617 35.3866 302.679 33.8241C301.742 32.2616 300.117 31.4804 297.804 31.4804C295.492 31.4804 293.804 32.3085 292.742 33.9648C291.711 35.621 291.101 38.2773 290.914 41.9335ZM340.133 8.9335V21.4023H346.929V31.3866H340.133V56.5585C340.133 58.5585 340.398 59.9335 340.929 60.6835C341.492 61.4335 342.554 61.8085 344.117 61.8085C345.398 61.8085 346.445 61.6991 347.258 61.4804L347.164 71.7929C344.914 72.6366 342.476 73.0585 339.851 73.0585C331.289 73.0585 326.961 68.1523 326.867 58.3398V31.3866H321.008V21.4023H326.867V8.9335H340.133ZM374.726 73.0585C367.914 73.0585 362.601 71.0273 358.789 66.9648C354.976 62.9023 353.07 57.0898 353.07 49.5273V45.496C353.07 37.496 354.82 31.3241 358.32 26.9804C361.82 22.6366 366.836 20.4648 373.367 20.4648C379.742 20.4648 384.539 22.5116 387.758 26.6054C390.976 30.6679 392.617 36.6991 392.679 44.6991V51.2148H366.289C366.476 54.9648 367.304 57.7148 368.773 59.4648C370.242 61.1835 372.508 62.0429 375.57 62.0429C380.008 62.0429 383.711 60.5273 386.679 57.496L391.883 65.5116C390.258 67.7616 387.898 69.5898 384.804 70.996C381.711 72.371 378.351 73.0585 374.726 73.0585ZM366.383 41.9335H379.648V40.7148C379.586 37.6835 379.086 35.3866 378.148 33.8241C377.211 32.2616 375.586 31.4804 373.273 31.4804C370.961 31.4804 369.273 32.3085 368.211 33.9648C367.179 35.621 366.57 38.2773 366.383 41.9335ZM422.633 58.5273C422.633 57.4023 422.086 56.371 420.992 55.4335C419.929 54.4648 417.539 53.1679 413.82 51.5429C408.351 49.3241 404.586 47.0273 402.523 44.6523C400.492 42.2773 399.476 39.3241 399.476 35.7929C399.476 31.3554 401.07 27.6991 404.258 24.8241C407.476 21.9179 411.726 20.4648 417.008 20.4648C422.57 20.4648 427.023 21.9023 430.367 24.7773C433.711 27.6523 435.383 31.5116 435.383 36.3554H422.117C422.117 32.2304 420.398 30.1679 416.961 30.1679C415.554 30.1679 414.398 30.6054 413.492 31.4804C412.586 32.3554 412.133 33.5741 412.133 35.1366C412.133 36.2616 412.633 37.2616 413.633 38.1366C414.633 38.9804 416.992 40.1991 420.711 41.7929C426.117 43.7929 429.929 46.0273 432.148 48.496C434.398 50.9335 435.523 54.1054 435.523 58.0116C435.523 62.5429 433.82 66.1835 430.414 68.9335C427.008 71.6835 422.539 73.0585 417.008 73.0585C413.289 73.0585 410.008 72.3398 407.164 70.9023C404.32 69.4335 402.086 67.4023 400.461 64.8085C398.867 62.2148 398.07 59.4179 398.07 56.4179H410.679C410.742 58.7304 411.273 60.4648 412.273 61.621C413.304 62.7773 414.976 63.3554 417.289 63.3554C420.851 63.3554 422.633 61.746 422.633 58.5273Z" fill="#F2F2F2"/>
</g>
<defs>
<filter id="filter0_d" x="0.554443" y="0.121002" width="438.969" height="80.9375" filterUnits="userSpaceOnUse" color-interpolation-filters="sRGB">
<feFlood flood-opacity="0" result="BackgroundImageFix"/>
<feColorMatrix in="SourceAlpha" type="matrix" values="0 0 0 0 0 0 0 0 0 0 0 0 0 0 0 0 0 0 127 0"/>
<feOffset dy="4"/>
<feGaussianBlur stdDeviation="2"/>
<feColorMatrix type="matrix" values="0 0 0 0 0 0 0 0 0 0 0 0 0 0 0 0 0 0 0.25 0"/>
<feBlend mode="normal" in2="BackgroundImageFix" result="effect1_dropShadow"/>
<feBlend mode="normal" in="SourceGraphic" in2="effect1_dropShadow" result="shape"/>
</filter>
</defs>
</svg>
