<svg width="342" height="32" viewBox="0 0 342 32" fill="none" xmlns="http://www.w3.org/2000/svg">
<g filter="url(#filter0_d)">
<path d="M12.4861 17.1802C12.4861 16.6724 12.2751 16.2856 11.8533 16.02C11.4392 15.7544 10.7478 15.52 9.77905 15.3169C8.8103 15.1138 8.00171 14.856 7.35327 14.5435C5.9314 13.856 5.22046 12.8599 5.22046 11.5552C5.22046 10.4614 5.6814 9.54736 6.60327 8.81299C7.52515 8.07861 8.69702 7.71143 10.1189 7.71143C11.6345 7.71143 12.8572 8.08643 13.7869 8.83643C14.7244 9.58643 15.1931 10.5591 15.1931 11.7544H12.3455C12.3455 11.2075 12.1423 10.7544 11.7361 10.395C11.3298 10.0278 10.7908 9.84424 10.1189 9.84424C9.4939 9.84424 8.98218 9.98877 8.58374 10.2778C8.19312 10.5669 7.9978 10.9536 7.9978 11.438C7.9978 11.8755 8.1814 12.2153 8.54858 12.4575C8.91577 12.6997 9.65796 12.9458 10.7751 13.1958C11.8923 13.438 12.7673 13.731 13.4001 14.0747C14.0408 14.4106 14.5134 14.8169 14.8181 15.2935C15.1306 15.77 15.2869 16.3481 15.2869 17.0278C15.2869 18.1685 14.8142 19.0942 13.8689 19.8052C12.9236 20.5083 11.6853 20.8599 10.1541 20.8599C9.11499 20.8599 8.18921 20.6724 7.37671 20.2974C6.56421 19.9224 5.9314 19.4067 5.47827 18.7505C5.02515 18.0942 4.79858 17.3872 4.79858 16.6294H7.56421C7.60327 17.3013 7.85718 17.8208 8.32593 18.188C8.79468 18.5474 9.41577 18.7271 10.1892 18.7271C10.9392 18.7271 11.5095 18.5864 11.9001 18.3052C12.2908 18.0161 12.4861 17.6411 12.4861 17.1802ZM30.0806 14.4146C30.0806 16.3755 29.6353 17.9419 28.7447 19.1138C27.8541 20.2778 26.6587 20.8599 25.1587 20.8599C23.7681 20.8599 22.6548 20.4028 21.8189 19.4888V25.5005H18.9712V7.9458H21.5962L21.7134 9.23486C22.5494 8.21924 23.6861 7.71143 25.1236 7.71143C26.6705 7.71143 27.8814 8.28955 28.7564 9.4458C29.6392 10.5942 30.0806 12.1919 30.0806 14.2388V14.4146ZM27.2447 14.1685C27.2447 12.9028 26.9908 11.8989 26.483 11.1567C25.983 10.4146 25.2642 10.0435 24.3267 10.0435C23.1626 10.0435 22.3267 10.5239 21.8189 11.4849V17.1099C22.3345 18.0942 23.1783 18.5864 24.3501 18.5864C25.2564 18.5864 25.9634 18.2231 26.4712 17.4966C26.9869 16.7622 27.2447 15.6528 27.2447 14.1685ZM33.1673 14.1685C33.1673 12.9263 33.4134 11.8091 33.9056 10.8169C34.3978 9.81689 35.0892 9.05127 35.9798 8.52002C36.8705 7.98096 37.8939 7.71143 39.0501 7.71143C40.7611 7.71143 42.1478 8.26221 43.2103 9.36377C44.2806 10.4653 44.8587 11.9263 44.9447 13.7466L44.9564 14.4146C44.9564 15.6646 44.7142 16.7817 44.2298 17.7661C43.7533 18.7505 43.0658 19.5122 42.1673 20.0513C41.2767 20.5903 40.2455 20.8599 39.0736 20.8599C37.2845 20.8599 35.8509 20.2661 34.7728 19.0786C33.7025 17.8833 33.1673 16.2935 33.1673 14.3091V14.1685ZM36.015 14.4146C36.015 15.7192 36.2845 16.7427 36.8236 17.4849C37.3626 18.2192 38.1126 18.5864 39.0736 18.5864C40.0345 18.5864 40.7806 18.2114 41.3119 17.4614C41.8509 16.7114 42.1205 15.6138 42.1205 14.1685C42.1205 12.8872 41.8431 11.8716 41.2884 11.1216C40.7416 10.3716 39.9955 9.99658 39.0501 9.99658C38.1205 9.99658 37.3822 10.3677 36.8353 11.1099C36.2884 11.8442 36.015 12.9458 36.015 14.4146ZM55.2033 10.5474C54.8283 10.4849 54.4416 10.4536 54.0431 10.4536C52.7384 10.4536 51.8595 10.9536 51.4064 11.9536V20.6255H48.5587V7.9458H51.2775L51.3478 9.36377C52.0353 8.26221 52.9884 7.71143 54.2072 7.71143C54.6134 7.71143 54.9494 7.76611 55.215 7.87549L55.2033 10.5474ZM62.3564 4.86377V7.9458H64.5947V10.0552H62.3564V17.1333C62.3564 17.6177 62.4501 17.9692 62.6376 18.188C62.833 18.3989 63.1767 18.5044 63.6689 18.5044C63.997 18.5044 64.3291 18.4653 64.665 18.3872V20.5903C64.0166 20.77 63.3916 20.8599 62.79 20.8599C60.6025 20.8599 59.5087 19.6528 59.5087 17.2388V10.0552H57.4228V7.9458H59.5087V4.86377H62.3564ZM75.0876 17.1802C75.0876 16.6724 74.8767 16.2856 74.4548 16.02C74.0408 15.7544 73.3494 15.52 72.3806 15.3169C71.4119 15.1138 70.6033 14.856 69.9548 14.5435C68.533 13.856 67.822 12.8599 67.822 11.5552C67.822 10.4614 68.283 9.54736 69.2048 8.81299C70.1267 8.07861 71.2986 7.71143 72.7205 7.71143C74.2361 7.71143 75.4587 8.08643 76.3884 8.83643C77.3259 9.58643 77.7947 10.5591 77.7947 11.7544H74.947C74.947 11.2075 74.7439 10.7544 74.3376 10.395C73.9314 10.0278 73.3923 9.84424 72.7205 9.84424C72.0955 9.84424 71.5837 9.98877 71.1853 10.2778C70.7947 10.5669 70.5994 10.9536 70.5994 11.438C70.5994 11.8755 70.783 12.2153 71.1501 12.4575C71.5173 12.6997 72.2595 12.9458 73.3767 13.1958C74.4939 13.438 75.3689 13.731 76.0017 14.0747C76.6423 14.4106 77.115 14.8169 77.4197 15.2935C77.7322 15.77 77.8884 16.3481 77.8884 17.0278C77.8884 18.1685 77.4158 19.0942 76.4705 19.8052C75.5251 20.5083 74.2869 20.8599 72.7556 20.8599C71.7166 20.8599 70.7908 20.6724 69.9783 20.2974C69.1658 19.9224 68.533 19.4067 68.0798 18.7505C67.6267 18.0942 67.4001 17.3872 67.4001 16.6294H70.1658C70.2048 17.3013 70.4587 17.8208 70.9275 18.188C71.3962 18.5474 72.0173 18.7271 72.7908 18.7271C73.5408 18.7271 74.1111 18.5864 74.5017 18.3052C74.8923 18.0161 75.0876 17.6411 75.0876 17.1802ZM88.89 11.5903C88.89 10.8481 89.1244 10.2427 89.5931 9.77393C90.0697 9.29736 90.6986 9.05908 91.4798 9.05908C92.2845 9.05908 92.9212 9.29736 93.39 9.77393C93.8587 10.2427 94.0931 10.8599 94.0931 11.6255V12.0591C94.0931 12.7935 93.8587 13.395 93.39 13.8638C92.9291 14.3247 92.2962 14.5552 91.4916 14.5552C90.7181 14.5552 90.0931 14.3325 89.6166 13.8872C89.1478 13.4341 88.9056 12.8442 88.89 12.1177V11.5903ZM116.626 14.4146C116.626 16.3755 116.181 17.9419 115.29 19.1138C114.399 20.2778 113.204 20.8599 111.704 20.8599C110.313 20.8599 109.2 20.4028 108.364 19.4888V25.5005H105.517V7.9458H108.142L108.259 9.23486C109.095 8.21924 110.231 7.71143 111.669 7.71143C113.216 7.71143 114.427 8.28955 115.302 9.4458C116.185 10.5942 116.626 12.1919 116.626 14.2388V14.4146ZM113.79 14.1685C113.79 12.9028 113.536 11.8989 113.028 11.1567C112.528 10.4146 111.81 10.0435 110.872 10.0435C109.708 10.0435 108.872 10.5239 108.364 11.4849V17.1099C108.88 18.0942 109.724 18.5864 110.895 18.5864C111.802 18.5864 112.509 18.2231 113.017 17.4966C113.532 16.7622 113.79 15.6528 113.79 14.1685ZM125.83 20.8599C124.025 20.8599 122.56 20.2935 121.435 19.1606C120.318 18.02 119.76 16.5044 119.76 14.6138V14.2622C119.76 12.9966 120.002 11.8677 120.486 10.8755C120.978 9.87549 121.666 9.09814 122.549 8.54346C123.431 7.98877 124.416 7.71143 125.502 7.71143C127.228 7.71143 128.56 8.26221 129.498 9.36377C130.443 10.4653 130.916 12.0239 130.916 14.0396V15.188H122.631C122.717 16.2349 123.064 17.063 123.674 17.6724C124.291 18.2817 125.064 18.5864 125.994 18.5864C127.299 18.5864 128.361 18.0591 129.181 17.0044L130.717 18.4692C130.209 19.2271 129.529 19.8169 128.677 20.2388C127.834 20.6528 126.885 20.8599 125.83 20.8599ZM125.49 9.99658C124.709 9.99658 124.076 10.27 123.592 10.8169C123.115 11.3638 122.81 12.1255 122.677 13.1021H128.103V12.8911C128.041 11.938 127.787 11.2192 127.342 10.7349C126.896 10.2427 126.279 9.99658 125.49 9.99658ZM133.803 14.1685C133.803 12.9263 134.049 11.8091 134.542 10.8169C135.034 9.81689 135.725 9.05127 136.616 8.52002C137.506 7.98096 138.53 7.71143 139.686 7.71143C141.397 7.71143 142.784 8.26221 143.846 9.36377C144.917 10.4653 145.495 11.9263 145.581 13.7466L145.592 14.4146C145.592 15.6646 145.35 16.7817 144.866 17.7661C144.389 18.7505 143.702 19.5122 142.803 20.0513C141.913 20.5903 140.881 20.8599 139.71 20.8599C137.92 20.8599 136.487 20.2661 135.409 19.0786C134.338 17.8833 133.803 16.2935 133.803 14.3091V14.1685ZM136.651 14.4146C136.651 15.7192 136.92 16.7427 137.46 17.4849C137.999 18.2192 138.749 18.5864 139.71 18.5864C140.67 18.5864 141.417 18.2114 141.948 17.4614C142.487 16.7114 142.756 15.6138 142.756 14.1685C142.756 12.8872 142.479 11.8716 141.924 11.1216C141.377 10.3716 140.631 9.99658 139.686 9.99658C138.756 9.99658 138.018 10.3677 137.471 11.1099C136.924 11.8442 136.651 12.9458 136.651 14.4146ZM160.304 14.4146C160.304 16.3755 159.859 17.9419 158.968 19.1138C158.077 20.2778 156.882 20.8599 155.382 20.8599C153.992 20.8599 152.878 20.4028 152.042 19.4888V25.5005H149.195V7.9458H151.82L151.937 9.23486C152.773 8.21924 153.91 7.71143 155.347 7.71143C156.894 7.71143 158.105 8.28955 158.98 9.4458C159.863 10.5942 160.304 12.1919 160.304 14.2388V14.4146ZM157.468 14.1685C157.468 12.9028 157.214 11.8989 156.706 11.1567C156.206 10.4146 155.488 10.0435 154.55 10.0435C153.386 10.0435 152.55 10.5239 152.042 11.4849V17.1099C152.558 18.0942 153.402 18.5864 154.574 18.5864C155.48 18.5864 156.187 18.2231 156.695 17.4966C157.21 16.7622 157.468 15.6528 157.468 14.1685ZM166.953 20.6255H164.106V2.62549H166.953V20.6255ZM176.849 20.8599C175.044 20.8599 173.579 20.2935 172.454 19.1606C171.337 18.02 170.778 16.5044 170.778 14.6138V14.2622C170.778 12.9966 171.02 11.8677 171.505 10.8755C171.997 9.87549 172.685 9.09814 173.567 8.54346C174.45 7.98877 175.435 7.71143 176.52 7.71143C178.247 7.71143 179.579 8.26221 180.517 9.36377C181.462 10.4653 181.935 12.0239 181.935 14.0396V15.188H173.649C173.735 16.2349 174.083 17.063 174.692 17.6724C175.31 18.2817 176.083 18.5864 177.013 18.5864C178.317 18.5864 179.38 18.0591 180.2 17.0044L181.735 18.4692C181.227 19.2271 180.548 19.8169 179.696 20.2388C178.852 20.6528 177.903 20.8599 176.849 20.8599ZM176.509 9.99658C175.727 9.99658 175.095 10.27 174.61 10.8169C174.134 11.3638 173.829 12.1255 173.696 13.1021H179.122V12.8911C179.06 11.938 178.806 11.2192 178.36 10.7349C177.915 10.2427 177.298 9.99658 176.509 9.99658ZM192.667 11.5903C192.667 10.8481 192.901 10.2427 193.37 9.77393C193.846 9.29736 194.475 9.05908 195.256 9.05908C196.061 9.05908 196.698 9.29736 197.167 9.77393C197.635 10.2427 197.87 10.8599 197.87 11.6255V12.0591C197.87 12.7935 197.635 13.395 197.167 13.8638C196.706 14.3247 196.073 14.5552 195.268 14.5552C194.495 14.5552 193.87 14.3325 193.393 13.8872C192.924 13.4341 192.682 12.8442 192.667 12.1177V11.5903ZM214.508 18.5864C215.219 18.5864 215.809 18.3794 216.277 17.9653C216.746 17.5513 216.996 17.0396 217.027 16.4302H219.711C219.68 17.2192 219.434 17.9575 218.973 18.645C218.512 19.3247 217.887 19.8638 217.098 20.2622C216.309 20.6606 215.457 20.8599 214.543 20.8599C212.77 20.8599 211.363 20.2856 210.324 19.1372C209.285 17.9888 208.766 16.4028 208.766 14.3794V14.0864C208.766 12.1567 209.281 10.6138 210.313 9.45752C211.344 8.29346 212.75 7.71143 214.531 7.71143C216.039 7.71143 217.266 8.15283 218.211 9.03564C219.164 9.91064 219.664 11.063 219.711 12.4927H217.027C216.996 11.7661 216.746 11.1685 216.277 10.6997C215.817 10.231 215.227 9.99658 214.508 9.99658C213.586 9.99658 212.875 10.3325 212.375 11.0044C211.875 11.6685 211.621 12.6802 211.613 14.0396V14.4966C211.613 15.8716 211.86 16.8989 212.352 17.5786C212.852 18.2505 213.57 18.5864 214.508 18.5864ZM222.528 14.1685C222.528 12.9263 222.774 11.8091 223.267 10.8169C223.759 9.81689 224.45 9.05127 225.341 8.52002C226.231 7.98096 227.255 7.71143 228.411 7.71143C230.122 7.71143 231.509 8.26221 232.571 9.36377C233.642 10.4653 234.22 11.9263 234.306 13.7466L234.317 14.4146C234.317 15.6646 234.075 16.7817 233.591 17.7661C233.114 18.7505 232.427 19.5122 231.528 20.0513C230.638 20.5903 229.606 20.8599 228.435 20.8599C226.645 20.8599 225.212 20.2661 224.134 19.0786C223.063 17.8833 222.528 16.2935 222.528 14.3091V14.1685ZM225.376 14.4146C225.376 15.7192 225.645 16.7427 226.185 17.4849C226.724 18.2192 227.474 18.5864 228.435 18.5864C229.395 18.5864 230.142 18.2114 230.673 17.4614C231.212 16.7114 231.481 15.6138 231.481 14.1685C231.481 12.8872 231.204 11.8716 230.649 11.1216C230.102 10.3716 229.356 9.99658 228.411 9.99658C227.481 9.99658 226.743 10.3677 226.196 11.1099C225.649 11.8442 225.376 12.9458 225.376 14.4146ZM240.603 7.9458L240.685 9.27002C241.576 8.23096 242.795 7.71143 244.342 7.71143C246.037 7.71143 247.197 8.35986 247.822 9.65674C248.744 8.35986 250.041 7.71143 251.713 7.71143C253.111 7.71143 254.15 8.09814 254.83 8.87158C255.517 9.64502 255.869 10.7856 255.885 12.2935V20.6255H253.037V12.3755C253.037 11.5708 252.861 10.981 252.51 10.606C252.158 10.231 251.576 10.0435 250.763 10.0435C250.115 10.0435 249.584 10.2192 249.17 10.5708C248.763 10.9146 248.478 11.3677 248.314 11.9302L248.326 20.6255H245.478V12.2817C245.439 10.7896 244.677 10.0435 243.193 10.0435C242.052 10.0435 241.244 10.5083 240.767 11.438V20.6255H237.92V7.9458H240.603ZM262.686 7.9458L262.768 9.27002C263.659 8.23096 264.877 7.71143 266.424 7.71143C268.12 7.71143 269.28 8.35986 269.905 9.65674C270.827 8.35986 272.124 7.71143 273.795 7.71143C275.194 7.71143 276.233 8.09814 276.913 8.87158C277.6 9.64502 277.952 10.7856 277.967 12.2935V20.6255H275.12V12.3755C275.12 11.5708 274.944 10.981 274.592 10.606C274.241 10.231 273.659 10.0435 272.846 10.0435C272.198 10.0435 271.667 10.2192 271.252 10.5708C270.846 10.9146 270.561 11.3677 270.397 11.9302L270.409 20.6255H267.561V12.2817C267.522 10.7896 266.76 10.0435 265.276 10.0435C264.135 10.0435 263.327 10.5083 262.85 11.438V20.6255H260.002V7.9458H262.686ZM289.773 19.3833C288.937 20.3677 287.749 20.8599 286.21 20.8599C284.835 20.8599 283.792 20.4575 283.081 19.6528C282.378 18.8481 282.027 17.6841 282.027 16.1606V7.9458H284.874V16.1255C284.874 17.7349 285.542 18.5396 286.878 18.5396C288.261 18.5396 289.195 18.0435 289.679 17.0513V7.9458H292.527V20.6255H289.843L289.773 19.3833ZM299.27 7.9458L299.352 9.41064C300.289 8.27783 301.52 7.71143 303.043 7.71143C305.684 7.71143 307.027 9.22314 307.074 12.2466V20.6255H304.227V12.4106C304.227 11.606 304.051 11.0122 303.699 10.6294C303.356 10.2388 302.789 10.0435 302 10.0435C300.852 10.0435 299.996 10.563 299.434 11.6021V20.6255H296.586V7.9458H299.27ZM314.216 20.6255H311.368V7.9458H314.216V20.6255ZM311.192 4.65283C311.192 4.21533 311.329 3.85205 311.602 3.56299C311.884 3.27393 312.282 3.12939 312.798 3.12939C313.313 3.12939 313.712 3.27393 313.993 3.56299C314.274 3.85205 314.415 4.21533 314.415 4.65283C314.415 5.08252 314.274 5.44189 313.993 5.73096C313.712 6.01221 313.313 6.15283 312.798 6.15283C312.282 6.15283 311.884 6.01221 311.602 5.73096C311.329 5.44189 311.192 5.08252 311.192 4.65283ZM322.095 4.86377V7.9458H324.334V10.0552H322.095V17.1333C322.095 17.6177 322.189 17.9692 322.377 18.188C322.572 18.3989 322.916 18.5044 323.408 18.5044C323.736 18.5044 324.068 18.4653 324.404 18.3872V20.5903C323.756 20.77 323.131 20.8599 322.529 20.8599C320.342 20.8599 319.248 19.6528 319.248 17.2388V10.0552H317.162V7.9458H319.248V4.86377H322.095ZM332.155 16.5474L334.733 7.9458H337.768L332.729 22.5474C331.956 24.6802 330.643 25.7466 328.792 25.7466C328.378 25.7466 327.92 25.6763 327.42 25.5356V23.3325L327.96 23.3677C328.678 23.3677 329.217 23.2349 329.577 22.9692C329.944 22.7114 330.233 22.2739 330.444 21.6567L330.854 20.5669L326.401 7.9458H329.471L332.155 16.5474Z" fill="#F2F2F2"/>
</g>
<defs>
<filter id="filter0_d" x="0.798584" y="0.625488" width="340.97" height="31.1211" filterUnits="userSpaceOnUse" color-interpolation-filters="sRGB">
<feFlood flood-opacity="0" result="BackgroundImageFix"/>
<feColorMatrix in="SourceAlpha" type="matrix" values="0 0 0 0 0 0 0 0 0 0 0 0 0 0 0 0 0 0 127 0"/>
<feOffset dy="2"/>
<feGaussianBlur stdDeviation="2"/>
<feColorMatrix type="matrix" values="0 0 0 0 0 0 0 0 0 0 0 0 0 0 0 0 0 0 0.25 0"/>
<feBlend mode="normal" in2="BackgroundImageFix" result="effect1_dropShadow"/>
<feBlend mode="normal" in="SourceGraphic" in2="effect1_dropShadow" result="shape"/>
</filter>
</defs>
</svg>
