<svg width="436" height="115" viewBox="0 0 436 115" fill="none" xmlns="http://www.w3.org/2000/svg">
<g filter="url(#filter0_d)">
<path d="M21.0232 22.7226H10.3005L7.89233 29.4023H4.41187L14.1853 3.80852H17.1384L26.9294 29.4023H23.4666L21.0232 22.7226ZM11.3201 19.9452H20.0212L15.6619 7.97453L11.3201 19.9452ZM45.4533 10.3827L45.5412 12.4921C46.9357 10.8515 48.8166 10.0312 51.1837 10.0312C53.8439 10.0312 55.6544 11.0507 56.6154 13.0898C57.2482 12.1757 58.0685 11.4374 59.0763 10.8749C60.0958 10.3124 61.297 10.0312 62.6798 10.0312C66.8517 10.0312 68.9728 12.2402 69.0431 16.6581V29.4023H65.7912V16.8515C65.7912 15.4921 65.4806 14.4784 64.8595 13.8105C64.2384 13.1308 63.1955 12.7909 61.7306 12.7909C60.5236 12.7909 59.5216 13.1542 58.7248 13.8808C57.9279 14.5956 57.465 15.5624 57.3361 16.7812V29.4023H54.0666V16.9394C54.0666 14.1738 52.713 12.7909 50.006 12.7909C47.8732 12.7909 46.4142 13.6991 45.6291 15.5155V29.4023H42.3771V10.3827H45.4533ZM74.9037 19.7167C74.9037 17.8534 75.2669 16.1777 75.9935 14.6894C76.7318 13.2011 77.7513 12.0527 79.0521 11.2441C80.3646 10.4355 81.8587 10.0312 83.5345 10.0312C86.1244 10.0312 88.2162 10.9277 89.8099 12.7206C91.4154 14.5136 92.2181 16.8984 92.2181 19.8749V20.1034C92.2181 21.955 91.8607 23.6191 91.1459 25.0956C90.4427 26.5605 89.4291 27.703 88.1048 28.5234C86.7923 29.3437 85.2806 29.7538 83.5697 29.7538C80.9916 29.7538 78.8998 28.8573 77.2943 27.0644C75.7005 25.2714 74.9037 22.8984 74.9037 19.9452V19.7167ZM78.1732 20.1034C78.1732 22.2128 78.6595 23.9062 79.6322 25.1835C80.6166 26.4609 81.9291 27.0995 83.5697 27.0995C85.222 27.0995 86.5345 26.455 87.5072 25.1659C88.4798 23.8652 88.9662 22.0488 88.9662 19.7167C88.9662 17.6308 88.4681 15.9433 87.472 14.6542C86.4876 13.3534 85.1751 12.703 83.5345 12.703C81.9291 12.703 80.6341 13.3417 79.6498 14.6191C78.6654 15.8964 78.1732 17.7245 78.1732 20.1034ZM104.09 24.9902L108.801 10.3827H112.124L105.303 29.4023H102.825L95.9341 10.3827H99.2564L104.09 24.9902ZM124.699 29.7538C122.121 29.7538 120.023 28.9101 118.406 27.2226C116.789 25.5234 115.98 23.2558 115.98 20.4198V19.8222C115.98 17.9355 116.338 16.2538 117.052 14.7773C117.779 13.289 118.787 12.1288 120.076 11.2968C121.377 10.453 122.783 10.0312 124.295 10.0312C126.767 10.0312 128.689 10.8456 130.06 12.4745C131.431 14.1034 132.117 16.4355 132.117 19.4706V20.8241H119.232C119.279 22.6991 119.824 24.2167 120.867 25.3769C121.922 26.5253 123.258 27.0995 124.875 27.0995C126.023 27.0995 126.996 26.8652 127.793 26.3964C128.59 25.9277 129.287 25.3066 129.885 24.5331L131.871 26.08C130.277 28.5292 127.886 29.7538 124.699 29.7538ZM124.295 12.703C122.982 12.703 121.881 13.1835 120.99 14.1445C120.099 15.0937 119.549 16.4296 119.338 18.1523H128.865V17.9062C128.771 16.2538 128.326 14.9765 127.529 14.0741C126.732 13.1601 125.654 12.703 124.295 12.703ZM140.755 10.3827L140.843 12.4921C142.237 10.8515 144.118 10.0312 146.485 10.0312C149.145 10.0312 150.956 11.0507 151.917 13.0898C152.55 12.1757 153.37 11.4374 154.378 10.8749C155.397 10.3124 156.599 10.0312 157.981 10.0312C162.153 10.0312 164.274 12.2402 164.345 16.6581V29.4023H161.093V16.8515C161.093 15.4921 160.782 14.4784 160.161 13.8105C159.54 13.1308 158.497 12.7909 157.032 12.7909C155.825 12.7909 154.823 13.1542 154.026 13.8808C153.229 14.5956 152.767 15.5624 152.638 16.7812V29.4023H149.368V16.9394C149.368 14.1738 148.015 12.7909 145.308 12.7909C143.175 12.7909 141.716 13.6991 140.931 15.5155V29.4023H137.679V10.3827H140.755ZM178.959 29.7538C176.381 29.7538 174.283 28.9101 172.666 27.2226C171.049 25.5234 170.24 23.2558 170.24 20.4198V19.8222C170.24 17.9355 170.598 16.2538 171.313 14.7773C172.039 13.289 173.047 12.1288 174.336 11.2968C175.637 10.453 177.043 10.0312 178.555 10.0312C181.027 10.0312 182.949 10.8456 184.32 12.4745C185.692 14.1034 186.377 16.4355 186.377 19.4706V20.8241H173.492C173.539 22.6991 174.084 24.2167 175.127 25.3769C176.182 26.5253 177.518 27.0995 179.135 27.0995C180.283 27.0995 181.256 26.8652 182.053 26.3964C182.85 25.9277 183.547 25.3066 184.145 24.5331L186.131 26.08C184.537 28.5292 182.147 29.7538 178.959 29.7538ZM178.555 12.703C177.242 12.703 176.141 13.1835 175.25 14.1445C174.36 15.0937 173.809 16.4296 173.598 18.1523H183.125V17.9062C183.031 16.2538 182.586 14.9765 181.789 14.0741C180.992 13.1601 179.914 12.703 178.555 12.703ZM195.033 10.3827L195.138 12.7734C196.591 10.9452 198.49 10.0312 200.833 10.0312C204.853 10.0312 206.88 12.2988 206.915 16.8339V29.4023H203.663V16.8163C203.652 15.4452 203.335 14.4316 202.714 13.7753C202.105 13.1191 201.15 12.7909 199.849 12.7909C198.794 12.7909 197.868 13.0722 197.072 13.6347C196.275 14.1972 195.654 14.9355 195.208 15.8495V29.4023H191.956V10.3827H195.033ZM218.032 5.77727V10.3827H221.583V12.8964H218.032V24.6913C218.032 25.453 218.19 26.0273 218.506 26.414C218.823 26.789 219.362 26.9765 220.124 26.9765C220.499 26.9765 221.014 26.9062 221.67 26.7655V29.4023C220.815 29.6366 219.983 29.7538 219.174 29.7538C217.721 29.7538 216.626 29.3144 215.887 28.4355C215.149 27.5566 214.78 26.3085 214.78 24.6913V12.8964H211.317V10.3827H214.78V5.77727H218.032ZM239.526 29.4023V12.8964H236.52V10.3827H239.526V8.43156C239.526 6.3925 240.071 4.81633 241.161 3.70305C242.251 2.58977 243.792 2.03313 245.784 2.03313C246.534 2.03313 247.278 2.13274 248.017 2.33195L247.841 4.96867C247.29 4.8632 246.704 4.81047 246.083 4.81047C245.028 4.81047 244.214 5.12102 243.64 5.74211C243.065 6.35149 242.778 7.23039 242.778 8.37883V10.3827H246.839V12.8964H242.778V29.4023H239.526ZM251.381 19.7167C251.381 17.8534 251.744 16.1777 252.471 14.6894C253.209 13.2011 254.229 12.0527 255.529 11.2441C256.842 10.4355 258.336 10.0312 260.012 10.0312C262.602 10.0312 264.694 10.9277 266.287 12.7206C267.893 14.5136 268.695 16.8984 268.695 19.8749V20.1034C268.695 21.955 268.338 23.6191 267.623 25.0956C266.92 26.5605 265.906 27.703 264.582 28.5234C263.27 29.3437 261.758 29.7538 260.047 29.7538C257.469 29.7538 255.377 28.8573 253.772 27.0644C252.178 25.2714 251.381 22.8984 251.381 19.9452V19.7167ZM254.651 20.1034C254.651 22.2128 255.137 23.9062 256.11 25.1835C257.094 26.4609 258.406 27.0995 260.047 27.0995C261.699 27.0995 263.012 26.455 263.985 25.1659C264.957 23.8652 265.444 22.0488 265.444 19.7167C265.444 17.6308 264.945 15.9433 263.949 14.6542C262.965 13.3534 261.652 12.703 260.012 12.703C258.406 12.703 257.111 13.3417 256.127 14.6191C255.143 15.8964 254.651 17.7245 254.651 20.1034ZM286.316 27.5214C285.05 29.0097 283.193 29.7538 280.743 29.7538C278.716 29.7538 277.169 29.1679 276.103 27.996C275.048 26.8124 274.515 25.0663 274.503 22.7577V10.3827H277.755V22.6698C277.755 25.5527 278.927 26.9941 281.271 26.9941C283.755 26.9941 285.408 26.0683 286.228 24.2167V10.3827H289.48V29.4023H286.386L286.316 27.5214ZM299.313 10.3827L299.419 12.7734C300.872 10.9452 302.77 10.0312 305.114 10.0312C309.133 10.0312 311.161 12.2988 311.196 16.8339V29.4023H307.944V16.8163C307.932 15.4452 307.616 14.4316 306.995 13.7753C306.385 13.1191 305.43 12.7909 304.129 12.7909C303.075 12.7909 302.149 13.0722 301.352 13.6347C300.555 14.1972 299.934 14.9355 299.489 15.8495V29.4023H296.237V10.3827H299.313ZM317.109 19.7343C317.109 16.8163 317.801 14.4726 319.183 12.703C320.566 10.9218 322.377 10.0312 324.615 10.0312C326.842 10.0312 328.605 10.7929 329.906 12.3163V2.40227H333.158V29.4023H330.17L330.011 27.3632C328.711 28.957 326.9 29.7538 324.58 29.7538C322.377 29.7538 320.578 28.8515 319.183 27.0468C317.801 25.2421 317.109 22.8866 317.109 19.9804V19.7343ZM320.361 20.1034C320.361 22.2597 320.806 23.9472 321.697 25.1659C322.588 26.3847 323.818 26.9941 325.388 26.9941C327.451 26.9941 328.957 26.0683 329.906 24.2167V15.4804C328.933 13.6874 327.439 12.7909 325.424 12.7909C323.83 12.7909 322.588 13.4062 321.697 14.6366C320.806 15.8671 320.361 17.6894 320.361 20.1034ZM347.913 29.7538C345.335 29.7538 343.237 28.9101 341.62 27.2226C340.003 25.5234 339.194 23.2558 339.194 20.4198V19.8222C339.194 17.9355 339.552 16.2538 340.267 14.7773C340.993 13.289 342.001 12.1288 343.29 11.2968C344.591 10.453 345.997 10.0312 347.509 10.0312C349.981 10.0312 351.903 10.8456 353.274 12.4745C354.645 14.1034 355.331 16.4355 355.331 19.4706V20.8241H342.446C342.493 22.6991 343.038 24.2167 344.081 25.3769C345.136 26.5253 346.472 27.0995 348.089 27.0995C349.237 27.0995 350.21 26.8652 351.007 26.3964C351.804 25.9277 352.501 25.3066 353.099 24.5331L355.085 26.08C353.491 28.5292 351.101 29.7538 347.913 29.7538ZM347.509 12.703C346.196 12.703 345.095 13.1835 344.204 14.1445C343.313 15.0937 342.763 16.4296 342.552 18.1523H352.079V17.9062C351.985 16.2538 351.54 14.9765 350.743 14.0741C349.946 13.1601 348.868 12.703 347.509 12.703ZM360.119 19.7343C360.119 16.8163 360.811 14.4726 362.194 12.703C363.576 10.9218 365.387 10.0312 367.625 10.0312C369.852 10.0312 371.615 10.7929 372.916 12.3163V2.40227H376.168V29.4023H373.18L373.022 27.3632C371.721 28.957 369.91 29.7538 367.59 29.7538C365.387 29.7538 363.588 28.8515 362.194 27.0468C360.811 25.2421 360.119 22.8866 360.119 19.9804V19.7343ZM363.371 20.1034C363.371 22.2597 363.817 23.9472 364.707 25.1659C365.598 26.3847 366.828 26.9941 368.399 26.9941C370.461 26.9941 371.967 26.0683 372.916 24.2167V15.4804C371.944 13.6874 370.449 12.7909 368.434 12.7909C366.84 12.7909 365.598 13.4062 364.707 14.6366C363.817 15.8671 363.371 17.6894 363.371 20.1034ZM392.899 19.7167C392.899 17.8534 393.262 16.1777 393.989 14.6894C394.727 13.2011 395.747 12.0527 397.047 11.2441C398.36 10.4355 399.854 10.0312 401.53 10.0312C404.12 10.0312 406.211 10.9277 407.805 12.7206C409.411 14.5136 410.213 16.8984 410.213 19.8749V20.1034C410.213 21.955 409.856 23.6191 409.141 25.0956C408.438 26.5605 407.424 27.703 406.1 28.5234C404.788 29.3437 403.276 29.7538 401.565 29.7538C398.987 29.7538 396.895 28.8573 395.29 27.0644C393.696 25.2714 392.899 22.8984 392.899 19.9452V19.7167ZM396.169 20.1034C396.169 22.2128 396.655 23.9062 397.628 25.1835C398.612 26.4609 399.924 27.0995 401.565 27.0995C403.217 27.0995 404.53 26.455 405.503 25.1659C406.475 23.8652 406.961 22.0488 406.961 19.7167C406.961 17.6308 406.463 15.9433 405.467 14.6542C404.483 13.3534 403.17 12.703 401.53 12.703C399.924 12.703 398.629 13.3417 397.645 14.6191C396.661 15.8964 396.169 17.7245 396.169 20.1034ZM419.168 10.3827L419.273 12.7734C420.726 10.9452 422.625 10.0312 424.969 10.0312C428.988 10.0312 431.015 12.2988 431.051 16.8339V29.4023H427.799V16.8163C427.787 15.4452 427.47 14.4316 426.849 13.7753C426.24 13.1191 425.285 12.7909 423.984 12.7909C422.929 12.7909 422.004 13.0722 421.207 13.6347C420.41 14.1972 419.789 14.9355 419.344 15.8495V29.4023H416.092V10.3827H419.168ZM14.0095 63.0995C15.1697 63.0995 16.1833 62.748 17.0505 62.0448C17.9177 61.3417 18.3982 60.4628 18.4919 59.4081H21.5681C21.5095 60.498 21.1345 61.5351 20.4431 62.5195C19.7517 63.5038 18.8259 64.289 17.6658 64.8749C16.5173 65.4609 15.2986 65.7538 14.0095 65.7538C11.4197 65.7538 9.35718 64.8925 7.82202 63.1698C6.29858 61.4355 5.53687 59.0683 5.53687 56.0683V55.5234C5.53687 53.6718 5.87671 52.0253 6.5564 50.5839C7.23608 49.1425 8.20874 48.0234 9.47437 47.2265C10.7517 46.4296 12.2576 46.0312 13.9919 46.0312C16.1248 46.0312 17.8943 46.6698 19.3005 47.9472C20.7185 49.2245 21.4744 50.8827 21.5681 52.9218H18.4919C18.3982 51.6913 17.9294 50.6835 17.0857 49.8984C16.2537 49.1015 15.2224 48.703 13.9919 48.703C12.3396 48.703 11.0564 49.3007 10.1423 50.496C9.23999 51.6796 8.78882 53.3964 8.78882 55.6464V56.2616C8.78882 58.453 9.23999 60.1405 10.1423 61.3241C11.0447 62.5077 12.3337 63.0995 14.0095 63.0995ZM26.163 55.7167C26.163 53.8534 26.5263 52.1777 27.2529 50.6894C27.9912 49.2011 29.0107 48.0527 30.3115 47.2441C31.624 46.4355 33.1181 46.0312 34.7939 46.0312C37.3837 46.0312 39.4755 46.9277 41.0693 48.7206C42.6748 50.5136 43.4775 52.8984 43.4775 55.8749V56.1034C43.4775 57.955 43.1201 59.6191 42.4052 61.0956C41.7021 62.5605 40.6884 63.703 39.3642 64.5234C38.0517 65.3437 36.54 65.7538 34.8291 65.7538C32.2509 65.7538 30.1591 64.8573 28.5537 63.0644C26.9599 61.2714 26.163 58.8984 26.163 55.9452V55.7167ZM29.4326 56.1034C29.4326 58.2128 29.9189 59.9062 30.8916 61.1835C31.8759 62.4609 33.1884 63.0995 34.8291 63.0995C36.4814 63.0995 37.7939 62.455 38.7666 61.1659C39.7392 59.8652 40.2255 58.0488 40.2255 55.7167C40.2255 53.6308 39.7275 51.9433 38.7314 50.6542C37.747 49.3534 36.4345 48.703 34.7939 48.703C33.1884 48.703 31.8935 49.3417 30.9091 50.6191C29.9248 51.8964 29.4326 53.7245 29.4326 56.1034ZM52.4142 46.3827L52.5021 48.4921C53.8966 46.8515 55.7775 46.0312 58.1447 46.0312C60.8048 46.0312 62.6154 47.0507 63.5763 49.0898C64.2091 48.1757 65.0294 47.4374 66.0373 46.8749C67.0568 46.3124 68.258 46.0312 69.6408 46.0312C73.8126 46.0312 75.9337 48.2402 76.0041 52.6581V65.4023H72.7521V52.8515C72.7521 51.4921 72.4416 50.4784 71.8205 49.8105C71.1994 49.1308 70.1564 48.7909 68.6916 48.7909C67.4845 48.7909 66.4826 49.1542 65.6857 49.8808C64.8888 50.5956 64.4259 51.5624 64.297 52.7812V65.4023H61.0275V52.9394C61.0275 50.1738 59.674 48.7909 56.9669 48.7909C54.8341 48.7909 53.3751 49.6991 52.59 51.5155V65.4023H49.338V46.3827H52.4142ZM85.7845 46.3827L85.8724 48.4921C87.2669 46.8515 89.1478 46.0312 91.515 46.0312C94.1751 46.0312 95.9857 47.0507 96.9466 49.0898C97.5794 48.1757 98.3998 47.4374 99.4076 46.8749C100.427 46.3124 101.628 46.0312 103.011 46.0312C107.183 46.0312 109.304 48.2402 109.374 52.6581V65.4023H106.122V52.8515C106.122 51.4921 105.812 50.4784 105.191 49.8105C104.57 49.1308 103.527 48.7909 102.062 48.7909C100.855 48.7909 99.8529 49.1542 99.056 49.8808C98.2591 50.5956 97.7962 51.5624 97.6673 52.7812V65.4023H94.3978V52.9394C94.3978 50.1738 93.0443 48.7909 90.3373 48.7909C88.2044 48.7909 86.7455 49.6991 85.9603 51.5155V65.4023H82.7084V46.3827H85.7845ZM127.838 63.5214C126.573 65.0097 124.715 65.7538 122.266 65.7538C120.239 65.7538 118.692 65.1679 117.626 63.996C116.571 62.8124 116.038 61.0663 116.026 58.7577V46.3827H119.278V58.6698C119.278 61.5527 120.45 62.9941 122.794 62.9941C125.278 62.9941 126.93 62.0683 127.751 60.2167V46.3827H131.002V65.4023H127.909L127.838 63.5214ZM140.836 46.3827L140.941 48.7734C142.394 46.9452 144.293 46.0312 146.636 46.0312C150.656 46.0312 152.683 48.2988 152.719 52.8339V65.4023H149.467V52.8163C149.455 51.4452 149.138 50.4316 148.517 49.7753C147.908 49.1191 146.953 48.7909 145.652 48.7909C144.597 48.7909 143.672 49.0722 142.875 49.6347C142.078 50.1972 141.457 50.9355 141.011 51.8495V65.4023H137.76V46.3827H140.836ZM162.956 65.4023H159.704V46.3827H162.956V65.4023ZM159.44 41.3378C159.44 40.8105 159.599 40.3652 159.915 40.0019C160.243 39.6386 160.724 39.457 161.356 39.457C161.989 39.457 162.47 39.6386 162.798 40.0019C163.126 40.3652 163.29 40.8105 163.29 41.3378C163.29 41.8652 163.126 42.3046 162.798 42.6562C162.47 43.0077 161.989 43.1835 161.356 43.1835C160.724 43.1835 160.243 43.0077 159.915 42.6562C159.599 42.3046 159.44 41.8652 159.44 41.3378ZM174.389 41.7773V46.3827H177.94V48.8964H174.389V60.6913C174.389 61.453 174.547 62.0273 174.863 62.414C175.18 62.789 175.719 62.9765 176.481 62.9765C176.856 62.9765 177.371 62.9062 178.027 62.7655V65.4023C177.172 65.6366 176.34 65.7538 175.531 65.7538C174.078 65.7538 172.983 65.3144 172.244 64.4355C171.506 63.5566 171.137 62.3085 171.137 60.6913V48.8964H167.674V46.3827H171.137V41.7773H174.389ZM189.777 60.6386L194.206 46.3827H197.687L190.04 68.3378C188.857 71.5019 186.976 73.0839 184.398 73.0839L183.783 73.0312L182.57 72.8027V70.1659L183.449 70.2363C184.55 70.2363 185.406 70.0136 186.015 69.5683C186.636 69.123 187.146 68.3085 187.544 67.1249L188.265 65.1913L181.48 46.3827H185.031L189.777 60.6386ZM224.877 65.4023C224.689 65.0273 224.537 64.3593 224.42 63.3984C222.908 64.9687 221.103 65.7538 219.006 65.7538C217.131 65.7538 215.59 65.2265 214.383 64.1718C213.187 63.1054 212.59 61.7577 212.59 60.1288C212.59 58.1484 213.34 56.6132 214.84 55.5234C216.351 54.4218 218.472 53.871 221.203 53.871H224.367V52.3769C224.367 51.2402 224.027 50.3378 223.347 49.6698C222.668 48.9902 221.666 48.6503 220.342 48.6503C219.181 48.6503 218.209 48.9433 217.424 49.5292C216.638 50.1152 216.246 50.8241 216.246 51.6562H212.976C212.976 50.707 213.31 49.7929 213.978 48.914C214.658 48.0234 215.572 47.3202 216.72 46.8046C217.881 46.289 219.152 46.0312 220.535 46.0312C222.726 46.0312 224.443 46.582 225.685 47.6835C226.927 48.7734 227.572 50.2792 227.619 52.2011V60.955C227.619 62.7011 227.842 64.0898 228.287 65.121V65.4023H224.877ZM219.48 62.9238C220.5 62.9238 221.467 62.6601 222.381 62.1327C223.295 61.6054 223.957 60.9198 224.367 60.0761V56.1738H221.818C217.834 56.1738 215.842 57.3398 215.842 59.6718C215.842 60.6913 216.181 61.4882 216.861 62.0624C217.541 62.6366 218.414 62.9238 219.48 62.9238ZM237.593 46.3827L237.698 48.7734C239.151 46.9452 241.05 46.0312 243.394 46.0312C247.413 46.0312 249.44 48.2988 249.476 52.8339V65.4023H246.224V52.8163C246.212 51.4452 245.895 50.4316 245.274 49.7753C244.665 49.1191 243.71 48.7909 242.409 48.7909C241.354 48.7909 240.429 49.0722 239.632 49.6347C238.835 50.1972 238.214 50.9355 237.769 51.8495V65.4023H234.517V46.3827H237.593ZM255.389 55.7343C255.389 52.8163 256.08 50.4726 257.463 48.703C258.846 46.9218 260.656 46.0312 262.895 46.0312C265.121 46.0312 266.885 46.7929 268.186 48.3163V38.4023H271.438V65.4023H268.449L268.291 63.3632C266.99 64.957 265.18 65.7538 262.86 65.7538C260.656 65.7538 258.858 64.8515 257.463 63.0468C256.08 61.2421 255.389 58.8866 255.389 55.9804V55.7343ZM258.641 56.1034C258.641 58.2597 259.086 59.9472 259.977 61.1659C260.867 62.3847 262.098 62.9941 263.668 62.9941C265.731 62.9941 267.236 62.0683 268.186 60.2167V51.4804C267.213 49.6874 265.719 48.7909 263.703 48.7909C262.11 48.7909 260.867 49.4062 259.977 50.6366C259.086 51.8671 258.641 53.6894 258.641 56.1034ZM300.104 60.3573C300.104 59.4784 299.77 58.7988 299.102 58.3183C298.446 57.8261 297.292 57.4042 295.639 57.0527C293.999 56.7011 292.692 56.2792 291.719 55.787C290.758 55.2948 290.044 54.7089 289.575 54.0292C289.118 53.3495 288.889 52.5409 288.889 51.6034C288.889 50.0448 289.545 48.7265 290.858 47.6484C292.182 46.5702 293.87 46.0312 295.92 46.0312C298.077 46.0312 299.823 46.5878 301.159 47.7011C302.506 48.8144 303.18 50.2382 303.18 51.9726H299.911C299.911 51.082 299.53 50.3144 298.768 49.6698C298.018 49.0253 297.069 48.703 295.92 48.703C294.737 48.703 293.811 48.9609 293.143 49.4765C292.475 49.9921 292.141 50.6659 292.141 51.498C292.141 52.2831 292.452 52.8749 293.073 53.2734C293.694 53.6718 294.813 54.0527 296.43 54.4159C298.059 54.7792 299.378 55.2128 300.385 55.7167C301.393 56.2206 302.137 56.83 302.618 57.5448C303.11 58.248 303.356 59.1093 303.356 60.1288C303.356 61.828 302.676 63.1933 301.317 64.2245C299.958 65.2441 298.194 65.7538 296.026 65.7538C294.503 65.7538 293.155 65.4843 291.983 64.9452C290.811 64.4062 289.891 63.6562 289.223 62.6952C288.567 61.7226 288.239 60.6738 288.239 59.5488H291.491C291.549 60.6386 291.983 61.5058 292.792 62.1503C293.612 62.7831 294.69 63.0995 296.026 63.0995C297.256 63.0995 298.241 62.8534 298.979 62.3613C299.729 61.8573 300.104 61.1894 300.104 60.3573ZM317.285 65.7538C314.707 65.7538 312.609 64.9101 310.992 63.2226C309.375 61.5234 308.566 59.2558 308.566 56.4198V55.8222C308.566 53.9355 308.924 52.2538 309.638 50.7773C310.365 49.289 311.373 48.1288 312.662 47.2968C313.963 46.453 315.369 46.0312 316.881 46.0312C319.353 46.0312 321.275 46.8456 322.646 48.4745C324.017 50.1034 324.703 52.4355 324.703 55.4706V56.8241H311.818C311.865 58.6991 312.41 60.2167 313.453 61.3769C314.508 62.5253 315.844 63.0995 317.461 63.0995C318.609 63.0995 319.582 62.8652 320.379 62.3964C321.176 61.9277 321.873 61.3066 322.47 60.5331L324.457 62.08C322.863 64.5292 320.472 65.7538 317.285 65.7538ZM316.881 48.703C315.568 48.703 314.467 49.1835 313.576 50.1445C312.685 51.0937 312.135 52.4296 311.924 54.1523H321.451V53.9062C321.357 52.2538 320.912 50.9765 320.115 50.0741C319.318 49.1601 318.24 48.703 316.881 48.703ZM333.815 65.4023H330.563V38.4023H333.815V65.4023ZM342.436 65.4023V48.8964H339.43V46.3827H342.436V44.4316C342.436 42.3925 342.981 40.8163 344.07 39.703C345.16 38.5898 346.701 38.0331 348.694 38.0331C349.444 38.0331 350.188 38.1327 350.926 38.332L350.75 40.9687C350.199 40.8632 349.613 40.8105 348.992 40.8105C347.938 40.8105 347.123 41.121 346.549 41.7421C345.975 42.3515 345.688 43.2304 345.688 44.3788V46.3827H349.748V48.8964H345.688V65.4023H342.436ZM9.91382 101.402H6.66187V82.3827H9.91382V101.402ZM6.39819 77.3378C6.39819 76.8105 6.5564 76.3652 6.8728 76.0019C7.20093 75.6386 7.6814 75.457 8.31421 75.457C8.94702 75.457 9.42749 75.6386 9.75562 76.0019C10.0837 76.3652 10.2478 76.8105 10.2478 77.3378C10.2478 77.8652 10.0837 78.3046 9.75562 78.6562C9.42749 79.0077 8.94702 79.1835 8.31421 79.1835C7.6814 79.1835 7.20093 79.0077 6.8728 78.6562C6.5564 78.3046 6.39819 77.8652 6.39819 77.3378ZM19.9931 82.3827L20.081 84.4921C21.4755 82.8515 23.3564 82.0312 25.7236 82.0312C28.3837 82.0312 30.1943 83.0507 31.1552 85.0898C31.788 84.1757 32.6083 83.4374 33.6162 82.8749C34.6357 82.3124 35.8369 82.0312 37.2197 82.0312C41.3916 82.0312 43.5126 84.2402 43.583 88.6581V101.402H40.331V88.8515C40.331 87.4921 40.0205 86.4784 39.3994 85.8105C38.7783 85.1308 37.7353 84.7909 36.2705 84.7909C35.0634 84.7909 34.0615 85.1542 33.2646 85.8808C32.4677 86.5956 32.0048 87.5624 31.8759 88.7812V101.402H28.6064V88.9394C28.6064 86.1738 27.2529 84.7909 24.5458 84.7909C22.413 84.7909 20.9541 85.6991 20.1689 87.5155V101.402H16.9169V82.3827H19.9931ZM66.3712 92.1034C66.3712 94.998 65.7091 97.33 64.3849 99.0995C63.0607 100.869 61.2677 101.754 59.006 101.754C56.6974 101.754 54.881 101.021 53.5568 99.5566V108.715H50.3048V82.3827H53.2755L53.4337 84.4921C54.758 82.8515 56.5978 82.0312 58.9533 82.0312C61.2384 82.0312 63.0431 82.8925 64.3673 84.6152C65.7033 86.3378 66.3712 88.7343 66.3712 91.8046V92.1034ZM63.1193 91.7343C63.1193 89.5898 62.6623 87.8964 61.7482 86.6542C60.8341 85.412 59.5802 84.7909 57.9865 84.7909C56.0177 84.7909 54.5412 85.664 53.5568 87.4101V96.498C54.5294 98.2323 56.0177 99.0995 58.0216 99.0995C59.5802 99.0995 60.8166 98.4843 61.7306 97.2538C62.6564 96.0116 63.1193 94.1718 63.1193 91.7343ZM81.513 85.3007C81.0209 85.2187 80.4876 85.1777 79.9134 85.1777C77.7806 85.1777 76.3334 86.0859 75.5716 87.9023V101.402H72.3197V82.3827H75.4837L75.5365 84.58C76.6029 82.8808 78.1146 82.0312 80.0716 82.0312C80.7044 82.0312 81.1849 82.1132 81.513 82.2773V85.3007ZM85.106 91.7167C85.106 89.8534 85.4693 88.1777 86.1958 86.6894C86.9341 85.2011 87.9537 84.0527 89.2544 83.2441C90.5669 82.4355 92.0611 82.0312 93.7369 82.0312C96.3267 82.0312 98.4185 82.9277 100.012 84.7206C101.618 86.5136 102.42 88.8984 102.42 91.8749V92.1034C102.42 93.955 102.063 95.6191 101.348 97.0956C100.645 98.5605 99.6314 99.703 98.3072 100.523C96.9947 101.344 95.483 101.754 93.772 101.754C91.1939 101.754 89.1021 100.857 87.4966 99.0644C85.9029 97.2714 85.106 94.8984 85.106 91.9452V91.7167ZM88.3755 92.1034C88.3755 94.2128 88.8619 95.9062 89.8345 97.1835C90.8189 98.4609 92.1314 99.0995 93.772 99.0995C95.4244 99.0995 96.7369 98.455 97.7095 97.1659C98.6822 95.8652 99.1685 94.0488 99.1685 91.7167C99.1685 89.6308 98.6705 87.9433 97.6744 86.6542C96.69 85.3534 95.3775 84.703 93.7369 84.703C92.1314 84.703 90.8365 85.3417 89.8521 86.6191C88.8677 87.8964 88.3755 89.7245 88.3755 92.1034ZM114.293 96.9902L119.004 82.3827H122.326L115.506 101.402H113.027L106.136 82.3827H109.459L114.293 96.9902ZM134.901 101.754C132.323 101.754 130.226 100.91 128.608 99.2226C126.991 97.5234 126.183 95.2558 126.183 92.4198V91.8222C126.183 89.9355 126.54 88.2538 127.255 86.7773C127.981 85.289 128.989 84.1288 130.278 83.2968C131.579 82.453 132.985 82.0312 134.497 82.0312C136.97 82.0312 138.892 82.8456 140.263 84.4745C141.634 86.1034 142.319 88.4355 142.319 91.4706V92.8241H129.435C129.481 94.6991 130.026 96.2167 131.069 97.3769C132.124 98.5253 133.46 99.0995 135.077 99.0995C136.226 99.0995 137.198 98.8652 137.995 98.3964C138.792 97.9277 139.489 97.3066 140.087 96.5331L142.073 98.08C140.479 100.529 138.089 101.754 134.901 101.754ZM134.497 84.703C133.185 84.703 132.083 85.1835 131.192 86.1445C130.302 87.0937 129.751 88.4296 129.54 90.1523H139.067V89.9062C138.974 88.2538 138.528 86.9765 137.731 86.0741C136.935 85.1601 135.856 84.703 134.497 84.703ZM150.957 82.3827L151.045 84.4921C152.44 82.8515 154.32 82.0312 156.688 82.0312C159.348 82.0312 161.158 83.0507 162.119 85.0898C162.752 84.1757 163.572 83.4374 164.58 82.8749C165.6 82.3124 166.801 82.0312 168.184 82.0312C172.356 82.0312 174.477 84.2402 174.547 88.6581V101.402H171.295V88.8515C171.295 87.4921 170.985 86.4784 170.363 85.8105C169.742 85.1308 168.699 84.7909 167.235 84.7909C166.027 84.7909 165.026 85.1542 164.229 85.8808C163.432 86.5956 162.969 87.5624 162.84 88.7812V101.402H159.57V88.9394C159.57 86.1738 158.217 84.7909 155.51 84.7909C153.377 84.7909 151.918 85.6991 151.133 87.5155V101.402H147.881V82.3827H150.957ZM189.161 101.754C186.583 101.754 184.486 100.91 182.868 99.2226C181.251 97.5234 180.443 95.2558 180.443 92.4198V91.8222C180.443 89.9355 180.8 88.2538 181.515 86.7773C182.242 85.289 183.249 84.1288 184.538 83.2968C185.839 82.453 187.245 82.0312 188.757 82.0312C191.23 82.0312 193.152 82.8456 194.523 84.4745C195.894 86.1034 196.579 88.4355 196.579 91.4706V92.8241H183.695C183.742 94.6991 184.286 96.2167 185.329 97.3769C186.384 98.5253 187.72 99.0995 189.337 99.0995C190.486 99.0995 191.458 98.8652 192.255 98.3964C193.052 97.9277 193.749 97.3066 194.347 96.5331L196.333 98.08C194.74 100.529 192.349 101.754 189.161 101.754ZM188.757 84.703C187.445 84.703 186.343 85.1835 185.452 86.1445C184.562 87.0937 184.011 88.4296 183.8 90.1523H193.327V89.9062C193.234 88.2538 192.788 86.9765 191.992 86.0741C191.195 85.1601 190.117 84.703 188.757 84.703ZM205.235 82.3827L205.34 84.7734C206.794 82.9452 208.692 82.0312 211.036 82.0312C215.055 82.0312 217.083 84.2988 217.118 88.8339V101.402H213.866V88.8163C213.854 87.4452 213.538 86.4316 212.917 85.7753C212.307 85.1191 211.352 84.7909 210.051 84.7909C208.997 84.7909 208.071 85.0722 207.274 85.6347C206.477 86.1972 205.856 86.9355 205.411 87.8495V101.402H202.159V82.3827H205.235ZM228.234 77.7773V82.3827H231.785V84.8964H228.234V96.6913C228.234 97.453 228.392 98.0273 228.709 98.414C229.025 98.789 229.564 98.9765 230.326 98.9765C230.701 98.9765 231.217 98.9062 231.873 98.7655V101.402C231.017 101.637 230.185 101.754 229.377 101.754C227.924 101.754 226.828 101.314 226.09 100.435C225.351 99.5566 224.982 98.3085 224.982 96.6913V84.8964H221.519V82.3827H224.982V77.7773H228.234ZM254.404 96.9902L259.115 82.3827H262.438L255.617 101.402H253.139L246.248 82.3827H249.57L254.404 96.9902ZM270.9 101.402H267.648V82.3827H270.9V101.402ZM267.384 77.3378C267.384 76.8105 267.542 76.3652 267.859 76.0019C268.187 75.6386 268.667 75.457 269.3 75.457C269.933 75.457 270.413 75.6386 270.742 76.0019C271.07 76.3652 271.234 76.8105 271.234 77.3378C271.234 77.8652 271.07 78.3046 270.742 78.6562C270.413 79.0077 269.933 79.1835 269.3 79.1835C268.667 79.1835 268.187 79.0077 267.859 78.6562C267.542 78.3046 267.384 77.8652 267.384 77.3378ZM289.663 101.402C289.475 101.027 289.323 100.359 289.206 99.3984C287.694 100.969 285.889 101.754 283.792 101.754C281.917 101.754 280.376 101.226 279.169 100.172C277.973 99.1054 277.376 97.7577 277.376 96.1288C277.376 94.1484 278.126 92.6132 279.626 91.5234C281.137 90.4218 283.258 89.871 285.989 89.871H289.153V88.3769C289.153 87.2402 288.813 86.3378 288.133 85.6698C287.454 84.9902 286.452 84.6503 285.128 84.6503C283.967 84.6503 282.995 84.9433 282.21 85.5292C281.424 86.1152 281.032 86.8241 281.032 87.6562H277.762C277.762 86.707 278.096 85.7929 278.764 84.914C279.444 84.0234 280.358 83.3202 281.506 82.8046C282.667 82.289 283.938 82.0312 285.321 82.0312C287.512 82.0312 289.229 82.582 290.471 83.6835C291.713 84.7734 292.358 86.2792 292.405 88.2011V96.955C292.405 98.7011 292.628 100.09 293.073 101.121V101.402H289.663ZM284.266 98.9238C285.286 98.9238 286.253 98.6601 287.167 98.1327C288.081 97.6054 288.743 96.9198 289.153 96.0761V92.1738H286.604C282.62 92.1738 280.628 93.3398 280.628 95.6718C280.628 96.6913 280.967 97.4882 281.647 98.0624C282.327 98.6366 283.2 98.9238 284.266 98.9238ZM321.106 96.3573C321.106 95.4784 320.772 94.7988 320.104 94.3183C319.448 93.8261 318.294 93.4042 316.642 93.0527C315.001 92.7011 313.694 92.2792 312.722 91.787C311.761 91.2948 311.046 90.7089 310.577 90.0292C310.12 89.3495 309.892 88.5409 309.892 87.6034C309.892 86.0448 310.548 84.7265 311.86 83.6484C313.185 82.5702 314.872 82.0312 316.923 82.0312C319.079 82.0312 320.825 82.5878 322.161 83.7011C323.509 84.8144 324.183 86.2382 324.183 87.9726H320.913C320.913 87.082 320.532 86.3144 319.77 85.6698C319.02 85.0253 318.071 84.703 316.923 84.703C315.739 84.703 314.813 84.9609 314.145 85.4765C313.477 85.9921 313.143 86.6659 313.143 87.498C313.143 88.2831 313.454 88.8749 314.075 89.2734C314.696 89.6718 315.815 90.0527 317.433 90.4159C319.061 90.7792 320.38 91.2128 321.388 91.7167C322.395 92.2206 323.14 92.83 323.62 93.5448C324.112 94.248 324.358 95.1093 324.358 96.1288C324.358 97.828 323.679 99.1933 322.319 100.225C320.96 101.244 319.196 101.754 317.028 101.754C315.505 101.754 314.157 101.484 312.985 100.945C311.813 100.406 310.893 99.6562 310.226 98.6952C309.569 97.7226 309.241 96.6738 309.241 95.5488H312.493C312.552 96.6386 312.985 97.5058 313.794 98.1503C314.614 98.7831 315.692 99.0995 317.028 99.0995C318.259 99.0995 319.243 98.8534 319.981 98.3613C320.731 97.8573 321.106 97.1894 321.106 96.3573ZM346.461 92.1034C346.461 94.998 345.799 97.33 344.475 99.0995C343.151 100.869 341.358 101.754 339.096 101.754C336.787 101.754 334.971 101.021 333.647 99.5566V108.715H330.395V82.3827H333.365L333.524 84.4921C334.848 82.8515 336.688 82.0312 339.043 82.0312C341.328 82.0312 343.133 82.8925 344.457 84.6152C345.793 86.3378 346.461 88.7343 346.461 91.8046V92.1034ZM343.209 91.7343C343.209 89.5898 342.752 87.8964 341.838 86.6542C340.924 85.412 339.67 84.7909 338.076 84.7909C336.108 84.7909 334.631 85.664 333.647 87.4101V96.498C334.619 98.2323 336.108 99.0995 338.111 99.0995C339.67 99.0995 340.906 98.4843 341.82 97.2538C342.746 96.0116 343.209 94.1718 343.209 91.7343ZM351.548 91.7167C351.548 89.8534 351.911 88.1777 352.638 86.6894C353.376 85.2011 354.396 84.0527 355.697 83.2441C357.009 82.4355 358.503 82.0312 360.179 82.0312C362.769 82.0312 364.861 82.9277 366.454 84.7206C368.06 86.5136 368.863 88.8984 368.863 91.8749V92.1034C368.863 93.955 368.505 95.6191 367.79 97.0956C367.087 98.5605 366.074 99.703 364.749 100.523C363.437 101.344 361.925 101.754 360.214 101.754C357.636 101.754 355.544 100.857 353.939 99.0644C352.345 97.2714 351.548 94.8984 351.548 91.9452V91.7167ZM354.818 92.1034C354.818 94.2128 355.304 95.9062 356.277 97.1835C357.261 98.4609 358.574 99.0995 360.214 99.0995C361.867 99.0995 363.179 98.455 364.152 97.1659C365.124 95.8652 365.611 94.0488 365.611 91.7167C365.611 89.6308 365.113 87.9433 364.117 86.6542C363.132 85.3534 361.82 84.703 360.179 84.703C358.574 84.703 357.279 85.3417 356.294 86.6191C355.31 87.8964 354.818 89.7245 354.818 92.1034ZM383.934 85.3007C383.442 85.2187 382.909 85.1777 382.335 85.1777C380.202 85.1777 378.754 86.0859 377.993 87.9023V101.402H374.741V82.3827H377.905L377.958 84.58C379.024 82.8808 380.536 82.0312 382.493 82.0312C383.126 82.0312 383.606 82.1132 383.934 82.2773V85.3007ZM394.031 77.7773V82.3827H397.582V84.8964H394.031V96.6913C394.031 97.453 394.189 98.0273 394.506 98.414C394.822 98.789 395.361 98.9765 396.123 98.9765C396.498 98.9765 397.013 98.9062 397.67 98.7655V101.402C396.814 101.637 395.982 101.754 395.174 101.754C393.72 101.754 392.625 101.314 391.886 100.435C391.148 99.5566 390.779 98.3085 390.779 96.6913V84.8964H387.316V82.3827H390.779V77.7773H394.031ZM414.27 96.3573C414.27 95.4784 413.936 94.7988 413.268 94.3183C412.612 93.8261 411.458 93.4042 409.806 93.0527C408.165 92.7011 406.858 92.2792 405.886 91.787C404.925 91.2948 404.21 90.7089 403.741 90.0292C403.284 89.3495 403.056 88.5409 403.056 87.6034C403.056 86.0448 403.712 84.7265 405.024 83.6484C406.349 82.5702 408.036 82.0312 410.087 82.0312C412.243 82.0312 413.989 82.5878 415.325 83.7011C416.673 84.8144 417.347 86.2382 417.347 87.9726H414.077C414.077 87.082 413.696 86.3144 412.935 85.6698C412.185 85.0253 411.235 84.703 410.087 84.703C408.903 84.703 407.977 84.9609 407.31 85.4765C406.642 85.9921 406.308 86.6659 406.308 87.498C406.308 88.2831 406.618 88.8749 407.239 89.2734C407.86 89.6718 408.979 90.0527 410.597 90.4159C412.226 90.7792 413.544 91.2128 414.552 91.7167C415.56 92.2206 416.304 92.83 416.784 93.5448C417.276 94.248 417.522 95.1093 417.522 96.1288C417.522 97.828 416.843 99.1933 415.483 100.225C414.124 101.244 412.36 101.754 410.192 101.754C408.669 101.754 407.321 101.484 406.149 100.945C404.977 100.406 404.058 99.6562 403.39 98.6952C402.733 97.7226 402.405 96.6738 402.405 95.5488H405.657C405.716 96.6386 406.149 97.5058 406.958 98.1503C407.778 98.7831 408.856 99.0995 410.192 99.0995C411.423 99.0995 412.407 98.8534 413.145 98.3613C413.895 97.8573 414.27 97.1894 414.27 96.3573Z" fill="#F2F2F2"/>
</g>
<defs>
<filter id="filter0_d" x="0.411865" y="0.0331268" width="434.639" height="114.682" filterUnits="userSpaceOnUse" color-interpolation-filters="sRGB">
<feFlood flood-opacity="0" result="BackgroundImageFix"/>
<feColorMatrix in="SourceAlpha" type="matrix" values="0 0 0 0 0 0 0 0 0 0 0 0 0 0 0 0 0 0 127 0"/>
<feOffset dy="2"/>
<feGaussianBlur stdDeviation="2"/>
<feColorMatrix type="matrix" values="0 0 0 0 0 0 0 0 0 0 0 0 0 0 0 0 0 0 0.25 0"/>
<feBlend mode="normal" in2="BackgroundImageFix" result="effect1_dropShadow"/>
<feBlend mode="normal" in="SourceGraphic" in2="effect1_dropShadow" result="shape"/>
</filter>
</defs>
</svg>
